<mxfile host="app.diagrams.net" modified="2021-10-19T13:31:00.042Z" agent="5.0 (Windows NT 10.0; Win64; x64) AppleWebKit/537.36 (KHTML, like Gecko) Chrome/94.0.4606.81 Safari/537.36" etag="Qnr-RrE-TQIQxOHOuM9a" version="15.5.5" type="github">
  <diagram id="USUz8GuGJP1hNpDri2PG" name="Page-1">
    <mxGraphModel dx="826" dy="464" grid="1" gridSize="10" guides="1" tooltips="1" connect="1" arrows="1" fold="1" page="1" pageScale="1" pageWidth="850" pageHeight="1100" math="0" shadow="0">
      <root>
        <object label="" id="0">
          <mxCell />
        </object>
        <mxCell id="1" parent="0" />
        <mxCell id="53oBhRxBYcer4Yte9Zjg-5" value="Proxy" style="ellipse;shape=cloud;whiteSpace=wrap;html=1;" vertex="1" parent="1">
          <mxGeometry x="230" y="30" width="120" height="80" as="geometry" />
        </mxCell>
        <mxCell id="53oBhRxBYcer4Yte9Zjg-6" value="&lt;span&gt;NIDA&lt;/span&gt;" style="shape=cylinder3;whiteSpace=wrap;html=1;boundedLbl=1;backgroundOutline=1;size=15;" vertex="1" parent="1">
          <mxGeometry x="80" y="130" width="60" height="80" as="geometry" />
        </mxCell>
        <mxCell id="53oBhRxBYcer4Yte9Zjg-7" value="&lt;span&gt;Private IP&lt;br&gt;10.10.67.56&lt;br&gt;&lt;/span&gt;" style="shape=cylinder3;whiteSpace=wrap;html=1;boundedLbl=1;backgroundOutline=1;size=15;" vertex="1" parent="1">
          <mxGeometry x="80" y="250" width="80" height="110" as="geometry" />
        </mxCell>
        <mxCell id="53oBhRxBYcer4Yte9Zjg-8" value="&lt;span&gt;Vaccination App&lt;br&gt;10.10.69.57&lt;br&gt;&lt;/span&gt;" style="shape=cylinder3;whiteSpace=wrap;html=1;boundedLbl=1;backgroundOutline=1;size=15;" vertex="1" parent="1">
          <mxGeometry x="240" y="250" width="80" height="110" as="geometry" />
        </mxCell>
        <mxCell id="53oBhRxBYcer4Yte9Zjg-9" value="Covid Testing" style="shape=cylinder3;whiteSpace=wrap;html=1;boundedLbl=1;backgroundOutline=1;size=15;" vertex="1" parent="1">
          <mxGeometry x="550" y="240" width="80" height="110" as="geometry" />
        </mxCell>
        <mxCell id="53oBhRxBYcer4Yte9Zjg-10" value="DB &lt;br&gt;Claud" style="text;html=1;strokeColor=none;fillColor=none;align=center;verticalAlign=middle;whiteSpace=wrap;rounded=0;" vertex="1" parent="1">
          <mxGeometry x="90" y="360" width="60" height="30" as="geometry" />
        </mxCell>
        <mxCell id="53oBhRxBYcer4Yte9Zjg-11" value="DB Physical" style="text;html=1;strokeColor=none;fillColor=none;align=center;verticalAlign=middle;whiteSpace=wrap;rounded=0;" vertex="1" parent="1">
          <mxGeometry x="245" y="360" width="60" height="30" as="geometry" />
        </mxCell>
        <mxCell id="53oBhRxBYcer4Yte9Zjg-16" value="" style="image;html=1;image=img/lib/clip_art/computers/Server_Tower_128x128.png" vertex="1" parent="1">
          <mxGeometry x="400" y="250" width="80" height="110" as="geometry" />
        </mxCell>
        <mxCell id="53oBhRxBYcer4Yte9Zjg-18" value="APP Covax" style="text;html=1;strokeColor=none;fillColor=none;align=center;verticalAlign=middle;whiteSpace=wrap;rounded=0;" vertex="1" parent="1">
          <mxGeometry x="420" y="370" width="60" height="30" as="geometry" />
        </mxCell>
        <mxCell id="53oBhRxBYcer4Yte9Zjg-19" style="edgeStyle=orthogonalEdgeStyle;rounded=0;orthogonalLoop=1;jettySize=auto;html=1;exitX=0.5;exitY=1;exitDx=0;exitDy=0;" edge="1" parent="1" source="53oBhRxBYcer4Yte9Zjg-18" target="53oBhRxBYcer4Yte9Zjg-18">
          <mxGeometry relative="1" as="geometry" />
        </mxCell>
        <mxCell id="53oBhRxBYcer4Yte9Zjg-20" value="Covid Test" style="text;html=1;strokeColor=none;fillColor=none;align=center;verticalAlign=middle;whiteSpace=wrap;rounded=0;" vertex="1" parent="1">
          <mxGeometry x="560" y="360" width="60" height="30" as="geometry" />
        </mxCell>
      </root>
    </mxGraphModel>
  </diagram>
</mxfile>
